{"title":"CSI New York 6x9 [HDTV + AC3 + Spanish] avi","uid":5572865,"size":458778624,"categoryP":"video","categoryS":"hd___tv_shows","magnet":"?xt=urn:btih:6607e1c86db7d4d06c9d194c06014c2e4f96ce62&amp;dn=CSI+New+York+6x9+%5BHDTV+%2B+AC3+%2B+Spanish%5D+avi&amp;tr=udp%3A%2F%2Ftracker.openbittorrent.com%3A80&amp;tr=udp%3A%2F%2Fopen.demonii.com%3A1337&amp;tr=udp%3A%2F%2Ftracker.coppersurfer.tk%3A6969&amp;tr=udp%3A%2F%2Fexodus.desync.com%3A6969","seeders":0,"leechers":1,"uploader":"fleqii","files":1,"time":1274300263,"description":"I:TorrentsCSI New York 6x9 [HDTV + AC3 + Spanish].avi\n   General\n      Complete name : I:TorrentsCSI New York 6x9 [HDTV + AC3 + Spanish].avi\n      Format : AVI\n      Format/Info : Audio Video Interleave\n      File size : 438 MiB\n      Duration : 37mn 47s\n      Overall bit rate : 1 618 Kbps\n      Writing application : VirtualDubMod 1.5.10.2 (build 2540/release)\n      Writing library : VirtualDubMod build 2540/release\n   Video #0\n      ID : 0\n      Format : MPEG-4 Visual\n      Format profile : Simple@L3\n      Format settings, BVOP : No\n      Format settings, QPel : No\n      Format settings, GMC : No warppoints\n      Format settings, Matrix : Default (H.263)\n      Codec ID : XVID\n      Codec ID/Hint : XviD\n      Duration : 37mn 47s\n      Bit rate : 1 161 Kbps\n      Width : 624 pixels\n      Height : 352 pixels\n      Display aspect ratio : 16:9\n      Frame rate : 25.000 fps\n      Resolution : 24 bits\n      Colorimetry : 4:2:0\n      Scan type : Progressive\n      Bits/(Pixel*Frame) : 0.211\n      Stream size : 314 MiB (72%)\n      Writing library : XviD 1.2.0.dev49\n   Audio #1\n      ID : 1\n      Format : AC-3\n      Format/Info : Audio Coding 3\n      Codec ID : 2000\n      Duration : 37mn 47s\n      Bit rate mode : Constant\n      Bit rate : 448 Kbps\n      Channel(s) : 2 channels\n      Channel positions : L R\n      Sampling rate : 48.0 KHz\n      Stream size : 121 MiB (28%)\n      Alignment : Split accross interleaves\n      Interleave, duration : 40 ms (1.00 video frame)\n      Interleave, preload duration : 500 ms","torrent":{"xt":"urn:btih:6607e1c86db7d4d06c9d194c06014c2e4f96ce62","amp;dn":"CSI+New+York+6x9+%5BHDTV+%2B+AC3+%2B+Spanish%5D+avi","amp;tr":["udp%3A%2F%2Ftracker.openbittorrent.com%3A80","udp%3A%2F%2Fopen.demonii.com%3A1337","udp%3A%2F%2Ftracker.coppersurfer.tk%3A6969","udp%3A%2F%2Fexodus.desync.com%3A6969"],"infoHash":"6607e1c86db7d4d06c9d194c06014c2e4f96ce62","infoHashBuffer":{"type":"Buffer","data":[102,7,225,200,109,183,212,208,108,157,25,76,6,1,76,46,79,150,206,98]},"announce":[],"urlList":[]}}